<?xml version="1.0" encoding="UTF-8"?>
<svg id="Layer_1" data-name="Layer 1" xmlns="http://www.w3.org/2000/svg" viewBox="0 0 512 512">
  <defs>
    <style>
      .cls-1 {
        fill: #2bb673;
      }

      .cls-2 {
        fill: #eb474b;
      }
    </style>
  </defs>
  <path class="cls-2" d="M119.41,353.31c57.65,72.27-40.11,56.82-62.51,44.1,32.09,52.13,109.94,89.06,201.12,89.64.73.01,1.47.01,2.2.01s1.47,0,2.2-.01c93.3-1.27,168.56-82.35,168.56-182.16,0-19.79-2.95-38.85-8.42-56.68-22.34-72.87-86.58-125.51-162.34-125.51-39.62,0-105.5,11.91-142.31,76.29-36.81,64.37-34.44,111.02,1.49,154.33Z"/>
  <path class="cls-1" d="M318.88,114.66c19.48,47.46,1.83,99.66,1.83,99.66,0,0-49.22-24.76-68.7-72.22-19.48-47.46-1.83-99.66-1.83-99.66,0,0,49.22,24.76,68.7,72.22Z"/>
  <path class="cls-1" d="M385.52,121.61c-14.1,55.84-64.86,91.18-64.86,91.18,0,0-27.91-55.2-13.81-111.04,14.1-55.84,64.86-91.18,64.86-91.18,0,0,27.91,55.2,13.81,111.04Z"/>
  <path class="cls-1" d="M399.56,194.19c-34.09,24.37-78.89,20.12-78.89,20.12,0,0,10.46-43.77,44.55-68.14,34.09-24.37,78.89-20.12,78.89-20.12,0,0-10.46,43.77-44.55,68.14Z"/>
</svg>